<svg version="1.2" xmlns="http://www.w3.org/2000/svg" viewBox="0 0 37 22" width="37" height="22">
	<title>horní lišta</title>
	<style>
		.s0 { fill: #ededec } 
	</style>
	<g id="horní lišta">
		<path id="piktogram" fill-rule="evenodd" class="s0" d="m36.3 3.9v14c0 1.7-1.6 3.1-3.6 3.1h-28.6c-2 0-3.7-1.4-3.7-3.1v-14c0-1.7 1.7-3.1 3.7-3.1h28.6c2 0 3.6 1.4 3.6 3.1zm-1.3 0c0-0.5-0.2-0.9-0.5-1.2l-9.5 8.1 9.7 8.1q0.3-0.5 0.3-1zm-30.9-2q-0.7 0-1.2 0.3l11.3 9.3c1.5 1.1 2.7 1.6 4.1 1.6 1.9 0 3.3-1 4.4-1.9l10.8-9.2q-0.4-0.1-0.8-0.1zm7.3 8.8l-9.4-7.7q-0.3 0.4-0.3 0.9v14q0 0.6 0.3 1zm21.2 9.3q0.7 0 1.2-0.3l-9.7-8.1-0.5 0.4c-1.2 1-3 2.2-5.3 2.2-1.7 0-3.3-0.6-5-1.9l-1-0.8-9.4 8.2q0.5 0.3 1.2 0.3z"/>
	</g>
</svg>