<svg version="1.2" xmlns="http://www.w3.org/2000/svg" width="37" height="22"><path fill-rule="evenodd" d="M36.3 3.9v14c0 1.7-1.6 3.1-3.6 3.1H4.1c-2 0-3.7-1.4-3.7-3.1v-14C.4 2.2 2.1.8 4.1.8h28.6c2 0 3.6 1.4 3.6 3.1zm-1.3 0c0-.5-.2-.9-.5-1.2L25 10.8l9.7 8.1q.3-.5.3-1zm-30.9-2q-.7 0-1.2.3l11.3 9.3c1.5 1.1 2.7 1.6 4.1 1.6 1.9 0 3.3-1 4.4-1.9L33.5 2q-.4-.1-.8-.1zm7.3 8.8L2 3q-.3.4-.3.9v14q0 .6.3 1zM32.6 20q.7 0 1.2-.3l-9.7-8.1-.5.4c-1.2 1-3 2.2-5.3 2.2-1.7 0-3.3-.6-5-1.9l-1-.8-9.4 8.2q.5.3 1.2.3z" fill="#ededec"/></svg>