<svg version="1.2" xmlns="http://www.w3.org/2000/svg" width="33" height="33"><path fill-rule="evenodd" d="M31.8 24.8c1 1.1 1 2.2.4 3.4-1.1 2.3-5.3 4.2-7.9 4-3.4 0-6.1-1.2-8.5-2.7-5.2-3.5-9.6-7.8-13-12.9C.6 13.4-.3 9.9.6 6.1 1.1 3.8 2.4 2.2 4.5 1c1.1-.6 2.2-.6 3.2.3q2.7 2.5 5.4 5.1c1 1 1 2.2.1 3.4l-.4.4c-2.1 2.6-2.1 2.6 0 5.4 1.8 2.4 4.1 4.3 6.8 5.8.7.4 1.1.4 1.7-.2 3.8-3.1 3.8-3.1 7.3.3q1.7 1.7 3.2 3.3zm-2.3-.2c-.4-.5-.9-.9-1.3-1.3-3.2-3.2-3.2-3.2-6.6-.3-.6.5-.9.7-1.7.3-4.3-2.2-7.6-5.3-10.2-9.3-.7-1.2-.8-2.1.4-3.1.6-.5 1-1.2 1.6-1.8.7-.7.7-1.3 0-2Q9.3 4.9 7 2.7c-.7-.7-1.3-.6-2.2-.1-2.4 1.5-2.9 3.8-3 6.9 0 2.2 1.1 4.7 2.7 6.9 3.5 4.9 7.7 8.9 12.6 12.2 1.3.8 2.7 1.6 4.1 1.8 2.3.3 4.6.4 6.8-.3 1.4-.5 2.6-1.7 3-3.2.3-1.1-.9-1.6-1.5-2.3z" fill="#ededec"/></svg>